<!DOCTYPE svg PUBLIC "-//W3C//DTD SVG 1.1//EN" "http://www.w3.org/Graphics/SVG/1.1/DTD/svg11.dtd">
<!-- Uploaded to: SVG Repo, www.svgrepo.com, Transformed by: SVG Repo Mixer Tools -->
<svg fill="#ffffff" height="64px" width="64px" version="1.1" id="Capa_1" xmlns="http://www.w3.org/2000/svg" xmlns:xlink="http://www.w3.org/1999/xlink" viewBox="0 0 490 490" xml:space="preserve">
<g id="SVGRepo_bgCarrier" stroke-width="0"/>
<g id="SVGRepo_tracerCarrier" stroke-linecap="round" stroke-linejoin="round"/>
<g id="SVGRepo_iconCarrier"> <g id="Business_1_Bold_5_"> <path d="M445.073,333.476h-17.716V231.602H263.191v-75.077h14.853c24.76,0,44.927-20.136,44.927-44.912V44.927 C322.956,20.151,302.789,0,278.029,0h-66.058c-24.76,0-44.927,20.151-44.927,44.927v66.686c0,24.76,20.151,44.912,44.927,44.912 h20.596v75.077H62.643v101.874H44.927C20.151,333.476,0,353.627,0,378.387v66.686C0,469.849,20.151,490,44.927,490h66.058 c24.76,0,44.927-20.151,44.927-44.927v-66.686c0-24.76-20.151-44.911-44.927-44.911H93.268v-71.249h139.298v71.249h-20.596 c-24.76,0-44.927,20.136-44.927,44.911v66.686c0,24.76,20.151,44.927,44.927,44.927h66.058c24.76,0,44.927-20.151,44.927-44.927 v-66.686c0-24.76-20.151-44.911-44.927-44.911h-14.853v-71.249h133.556v71.249h-17.716c-24.76,0-44.927,20.136-44.927,44.911 v66.686c0,24.76,20.151,44.927,44.927,44.927h66.058C469.849,490,490,469.849,490,445.073v-66.686 C490,353.627,469.849,333.476,445.073,333.476z M197.669,111.613V44.927c0-7.886,6.416-14.302,14.302-14.302h66.058 c7.886,0,14.302,6.416,14.302,14.302v66.686c0,7.886-6.416,14.287-14.302,14.287h-66.058 C204.085,125.899,197.669,119.499,197.669,111.613z M125.287,378.387v66.686c0,7.886-6.416,14.302-14.302,14.302H44.927 c-7.886,0-14.302-6.416-14.302-14.302v-66.686c0-7.886,6.416-14.286,14.302-14.286h66.058 C118.871,364.101,125.287,370.501,125.287,378.387z M292.331,378.387v66.686c0,7.886-6.416,14.302-14.302,14.302h-66.058 c-7.886,0-14.302-6.416-14.302-14.302v-66.686c0-7.886,6.416-14.286,14.302-14.286h66.058 C285.915,364.101,292.331,370.501,292.331,378.387z M459.375,445.073c0,7.886-6.416,14.302-14.302,14.302h-66.058 c-7.886,0-14.302-6.416-14.302-14.302v-66.686c0-7.886,6.416-14.286,14.302-14.286h66.058c7.886,0,14.302,6.4,14.302,14.286 V445.073z"/> </g> </g>
</svg>